<svg width="157" height="27" viewBox="0 0 157 27" fill="none" xmlns="http://www.w3.org/2000/svg">
<path d="M27.7009 10.74H31.3209V12C32.3076 11.0533 33.4143 10.58 34.6409 10.58C36.1609 10.58 37.3209 11.22 38.1209 12.5C38.9343 11.2067 40.0943 10.56 41.6009 10.56C42.0809 10.56 42.5343 10.6333 42.9609 10.78C43.3876 10.9133 43.7543 11.1333 44.0609 11.44C44.3676 11.7333 44.6076 12.12 44.7809 12.6C44.9676 13.08 45.0609 13.66 45.0609 14.34V21H41.4409V15.94C41.4409 15.42 41.4009 14.9933 41.3209 14.66C41.2543 14.3267 41.1476 14.0667 41.0009 13.88C40.8676 13.6933 40.7076 13.5667 40.5209 13.5C40.3343 13.4333 40.1343 13.4 39.9209 13.4C38.7609 13.4 38.1809 14.2467 38.1809 15.94V21H34.5609V15.94C34.5609 15.42 34.5276 14.9933 34.4609 14.66C34.3943 14.3133 34.2943 14.04 34.1609 13.84C34.0409 13.64 33.8809 13.5067 33.6809 13.44C33.4809 13.36 33.2476 13.32 32.9809 13.32C32.7543 13.32 32.5409 13.3533 32.3409 13.42C32.1409 13.4867 31.9609 13.62 31.8009 13.82C31.6543 14.0067 31.5343 14.2733 31.4409 14.62C31.3609 14.9533 31.3209 15.3933 31.3209 15.94V21H27.7009V10.74ZM51.1647 10.74V21H47.5447V10.74H51.1647ZM47.3047 6.8C47.3047 6.52 47.358 6.26 47.4647 6.02C47.5714 5.76667 47.718 5.54667 47.9047 5.36C48.0914 5.17333 48.3047 5.02667 48.5447 4.92C48.798 4.81333 49.0647 4.76 49.3447 4.76C49.6247 4.76 49.8847 4.81333 50.1247 4.92C50.378 5.02667 50.598 5.17333 50.7847 5.36C50.9714 5.54667 51.118 5.76667 51.2247 6.02C51.3314 6.26 51.3847 6.52 51.3847 6.8C51.3847 7.08 51.3314 7.34667 51.2247 7.6C51.118 7.84 50.9714 8.05333 50.7847 8.24C50.598 8.42667 50.378 8.57333 50.1247 8.68C49.8847 8.78667 49.6247 8.84 49.3447 8.84C49.0647 8.84 48.798 8.78667 48.5447 8.68C48.3047 8.57333 48.0914 8.42667 47.9047 8.24C47.718 8.05333 47.5714 7.84 47.4647 7.6C47.358 7.34667 47.3047 7.08 47.3047 6.8ZM61.3784 14.06C60.7518 13.6333 60.1184 13.42 59.4784 13.42C59.1318 13.42 58.8051 13.48 58.4984 13.6C58.2051 13.72 57.9451 13.8933 57.7184 14.12C57.4918 14.3333 57.3118 14.5933 57.1784 14.9C57.0584 15.1933 56.9984 15.5267 56.9984 15.9C56.9984 16.26 57.0584 16.5933 57.1784 16.9C57.3118 17.1933 57.4851 17.4533 57.6984 17.68C57.9251 17.8933 58.1918 18.06 58.4984 18.18C58.8051 18.3 59.1318 18.36 59.4784 18.36C60.1584 18.36 60.7918 18.1267 61.3784 17.66V20.74C60.4851 21.1267 59.6384 21.32 58.8384 21.32C58.0918 21.32 57.3784 21.1933 56.6984 20.94C56.0318 20.6867 55.4384 20.3267 54.9184 19.86C54.4118 19.38 54.0051 18.8133 53.6984 18.16C53.3918 17.4933 53.2384 16.7533 53.2384 15.94C53.2384 15.1267 53.3851 14.3867 53.6784 13.72C53.9718 13.04 54.3718 12.46 54.8784 11.98C55.3851 11.4867 55.9851 11.1067 56.6784 10.84C57.3851 10.56 58.1384 10.42 58.9384 10.42C59.8184 10.42 60.6318 10.6067 61.3784 10.98V14.06ZM63.4431 10.74H67.0631V12.42C67.4498 11.8067 67.9231 11.34 68.4831 11.02C69.0431 10.6867 69.6965 10.52 70.4431 10.52C70.5365 10.52 70.6365 10.52 70.7431 10.52C70.8631 10.52 70.9965 10.5333 71.1431 10.56V14.02C70.6631 13.78 70.1431 13.66 69.5831 13.66C68.7431 13.66 68.1098 13.9133 67.6831 14.42C67.2698 14.9133 67.0631 15.64 67.0631 16.6V21H63.4431V10.74ZM76.2577 15.82C76.2577 16.1667 76.3177 16.4867 76.4377 16.78C76.571 17.06 76.7377 17.3067 76.9377 17.52C77.151 17.7333 77.3977 17.9 77.6777 18.02C77.971 18.14 78.2777 18.2 78.5977 18.2C78.9177 18.2 79.2177 18.14 79.4977 18.02C79.791 17.9 80.0377 17.7333 80.2377 17.52C80.451 17.3067 80.6177 17.06 80.7377 16.78C80.871 16.4867 80.9377 16.1733 80.9377 15.84C80.9377 15.52 80.871 15.22 80.7377 14.94C80.6177 14.6467 80.451 14.3933 80.2377 14.18C80.0377 13.9667 79.791 13.8 79.4977 13.68C79.2177 13.56 78.9177 13.5 78.5977 13.5C78.2777 13.5 77.971 13.56 77.6777 13.68C77.3977 13.8 77.151 13.9667 76.9377 14.18C76.7377 14.3933 76.571 14.64 76.4377 14.92C76.3177 15.2 76.2577 15.5 76.2577 15.82ZM72.4377 15.78C72.4377 15.02 72.591 14.3133 72.8977 13.66C73.2043 12.9933 73.631 12.42 74.1777 11.94C74.7243 11.4467 75.371 11.06 76.1177 10.78C76.8777 10.5 77.7043 10.36 78.5977 10.36C79.4777 10.36 80.291 10.5 81.0377 10.78C81.7977 11.0467 82.451 11.4267 82.9977 11.92C83.5577 12.4 83.991 12.98 84.2977 13.66C84.6043 14.3267 84.7577 15.0667 84.7577 15.88C84.7577 16.6933 84.5977 17.44 84.2777 18.12C83.971 18.7867 83.5443 19.3667 82.9977 19.86C82.451 20.34 81.791 20.7133 81.0177 20.98C80.2577 21.2467 79.431 21.38 78.5377 21.38C77.6577 21.38 76.8443 21.2467 76.0977 20.98C75.351 20.7133 74.7043 20.3333 74.1577 19.84C73.6243 19.3467 73.2043 18.76 72.8977 18.08C72.591 17.3867 72.4377 16.62 72.4377 15.78ZM86.5016 21L89.0616 5.92H92.9416L95.9616 13.96L98.9616 5.92H102.842L105.402 21H101.502L100.202 12.32L96.6416 21H95.0816L91.7016 12.32L90.4016 21H86.5016ZM116.465 9.24H111.805V11.76H116.205V15.08H111.805V17.68H116.465V21H107.885V5.92H116.465V9.24ZM123.211 17.68H124.111C124.791 17.68 125.398 17.5733 125.931 17.36C126.464 17.1467 126.911 16.8533 127.271 16.48C127.644 16.1067 127.924 15.6667 128.111 15.16C128.311 14.64 128.411 14.0733 128.411 13.46C128.411 12.86 128.311 12.3 128.111 11.78C127.911 11.26 127.624 10.8133 127.251 10.44C126.891 10.0667 126.444 9.77333 125.911 9.56C125.378 9.34667 124.778 9.24 124.111 9.24H123.211V17.68ZM119.291 5.92H125.091C126.118 5.92 127.078 6.12667 127.971 6.54C128.878 6.95333 129.664 7.50667 130.331 8.2C131.011 8.88 131.544 9.68 131.931 10.6C132.318 11.5067 132.511 12.46 132.511 13.46C132.511 14.4467 132.318 15.4 131.931 16.32C131.558 17.2267 131.031 18.0267 130.351 18.72C129.684 19.4133 128.898 19.9667 127.991 20.38C127.098 20.7933 126.131 21 125.091 21H119.291V5.92ZM138.934 5.92V21H135.014V5.92H138.934ZM150.284 15.4L148.524 10.38L146.764 15.4H150.284ZM151.324 18.38H145.724L144.824 21H140.644L146.384 5.92H150.664L156.404 21H152.224L151.324 18.38Z" fill="#222222"/>
<circle cx="4.5" cy="17.5" r="4.5" fill="#222222"/>
<path d="M16 21C16 12.7157 9.28427 6 1 6" stroke="black" stroke-width="5"/>
</svg>
